<svg xmlns="http://www.w3.org/2000/svg" viewBox="0 0 64 64" fill="none">
  <!-- Background tile -->
  <rect x="4" y="4" width="56" height="56" rx="14" fill="#100E18"/>

  <!-- Inner plate -->
  <rect x="10" y="14" width="44" height="32" rx="8" fill="#1B1826" stroke="#342E48" stroke-width="1.5"/>

  <!-- Top key row -->
  <rect x="14" y="18" width="8" height="6" rx="2" fill="#252032"/>
  <rect x="24" y="18" width="8" height="6" rx="2" fill="#252032"/>
  <rect x="34" y="18" width="8" height="6" rx="2" fill="#252032"/>
  <rect x="44" y="18" width="8" height="6" rx="2" fill="#252032"/>

  <!-- Middle key row -->
  <rect x="17" y="26" width="8" height="6" rx="2" fill="#252032"/>
  <rect x="27" y="26" width="8" height="6" rx="2" fill="#252032"/>
  <rect x="37" y="26" width="8" height="6" rx="2" fill="#252032"/>

  <!-- Accent spacebar -->
  <rect x="16" y="35" width="32" height="7" rx="3.5" fill="#FF8B6E"/>

  <!-- Speed arc under spacebar -->
  <path
    d="M18 46c4 6 10.5 10 14 10s10-4 14-10"
    stroke="#FF8B6E"
    stroke-width="2"
    stroke-linecap="round"
    stroke-opacity="0.9"
  />

  <!-- Forward arrow (speed indicator) -->
  <path
    d="M30 44 L38 44 L34 48 Z"
    fill="#FF8B6E"
  />
</svg>
